<svg width="113" height="136" viewBox="0 0 113 136" fill="none" xmlns="http://www.w3.org/2000/svg">
<path d="M97.3878 20.7223C99.9988 20.7223 102.115 17.8231 102.115 14.2467C102.115 10.6702 99.9988 7.77098 97.3878 7.77098C94.7769 7.77098 92.6603 10.6702 92.6603 14.2467C92.6603 17.8231 94.7769 20.7223 97.3878 20.7223Z" stroke="#4C241D" stroke-width="2.60395" stroke-linecap="round" stroke-linejoin="round"/>
<path d="M40.6571 111.382C63.1113 111.382 81.3141 86.4479 81.3141 55.6908C81.3141 24.9336 63.1113 0 40.6571 0C18.2028 0 0 24.9336 0 55.6908C0 86.4479 18.2028 111.382 40.6571 111.382Z" fill="#E5EFEF"/>
<path d="M22.3841 1.71749L15.4364 11.2341" stroke="#4C241D" stroke-width="2.60395" stroke-linecap="round" stroke-linejoin="round"/>
<path d="M15.4364 1.71749L22.3841 11.2341" stroke="#4C241D" stroke-width="2.60395" stroke-linecap="round" stroke-linejoin="round"/>
<path d="M11.3461 23.3122C12.3905 23.3122 13.2371 22.1525 13.2371 20.7219C13.2371 19.2914 12.3905 18.1317 11.3461 18.1317C10.3017 18.1317 9.4551 19.2914 9.4551 20.7219C9.4551 22.1525 10.3017 23.3122 11.3461 23.3122Z" fill="#4C241D"/>
<path d="M9.4551 46.6245H111.571V134.694H9.4551V46.6245Z" fill="#6B4F5B" stroke="#4C241D" stroke-width="2.60395" stroke-linecap="round" stroke-linejoin="round"/>
<path d="M60.5128 131.287V46.1063C60.5128 46.1063 75.1872 25.6613 102.091 32.4763V117.657C102.091 117.657 77.6323 114.249 60.5128 131.287Z" fill="white" stroke="#4C241D" stroke-width="2.60395" stroke-linecap="round" stroke-linejoin="round"/>
<path d="M69.968 58.2367C76.4244 54.058 83.4697 51.8629 90.6104 51.8051L69.968 58.2367Z" fill="white"/>
<path d="M69.968 58.2367C76.4244 54.058 83.4697 51.8629 90.6104 51.8051" stroke="#B5A19C" stroke-width="2.60395" stroke-linecap="round" stroke-linejoin="round"/>
<path d="M69.968 68.598C76.4244 64.4193 83.4697 62.2242 90.6104 62.1664L69.968 68.598Z" fill="white"/>
<path d="M69.968 68.598C76.4244 64.4193 83.4697 62.2242 90.6104 62.1664" stroke="#B5A19C" stroke-width="2.60395" stroke-linecap="round" stroke-linejoin="round"/>
<path d="M69.968 78.9591C76.4244 74.7803 83.4697 72.5852 90.6104 72.5274L69.968 78.9591Z" fill="white"/>
<path d="M69.968 78.9591C76.4244 74.7803 83.4697 72.5852 90.6104 72.5274" stroke="#B5A19C" stroke-width="2.60395" stroke-linecap="round" stroke-linejoin="round"/>
<path d="M60.5128 131.287V46.1063C60.5128 46.1063 45.829 25.6613 18.9103 32.4763V117.657C18.9103 117.657 43.382 114.249 60.5128 131.287Z" fill="white" stroke="#4C241D" stroke-width="2.60395" stroke-linecap="round" stroke-linejoin="round"/>
<path d="M52.9487 18.132L47.2757 10.3612" stroke="#FFCE56" stroke-width="2.60395" stroke-linecap="round" stroke-linejoin="round"/>
<path d="M68.0769 18.132L73.75 10.3612" stroke="#FFCE56" stroke-width="2.60395" stroke-linecap="round" stroke-linejoin="round"/>
<path d="M60.5128 18.1319V7.77086" stroke="#FFCE56" stroke-width="2.60395" stroke-linecap="round" stroke-linejoin="round"/>
<path d="M50.8988 58.2367C44.4425 54.0572 37.3972 51.862 30.2563 51.8051L50.8988 58.2367Z" fill="white"/>
<path d="M50.8988 58.2367C44.4425 54.0572 37.3972 51.862 30.2563 51.8051" stroke="#B5A19C" stroke-width="2.60395" stroke-linecap="round" stroke-linejoin="round"/>
<path d="M50.8988 68.598C44.4425 64.4185 37.3972 62.2233 30.2563 62.1664L50.8988 68.598Z" fill="white"/>
<path d="M50.8988 68.598C44.4425 64.4185 37.3972 62.2233 30.2563 62.1664" stroke="#B5A19C" stroke-width="2.60395" stroke-linecap="round" stroke-linejoin="round"/>
<path d="M50.8988 78.9591C44.4425 74.7796 37.3972 72.5844 30.2563 72.5274L50.8988 78.9591Z" fill="white"/>
<path d="M50.8988 78.9591C44.4425 74.7796 37.3972 72.5844 30.2563 72.5274" stroke="#B5A19C" stroke-width="2.60395" stroke-linecap="round" stroke-linejoin="round"/>
</svg>
