<svg width="1133" height="766" viewBox="0 0 1133 766" fill="none" xmlns="http://www.w3.org/2000/svg">
<path d="M545 8.83333C520.62 8.83333 500.833 28.62 500.833 53C500.833 77.38 520.62 97.1667 545 97.1667C569.38 97.1667 589.167 77.38 589.167 53C589.167 28.62 569.38 8.83333 545 8.83333ZM545 26.5C553.524 26.5 560.458 33.4342 560.458 41.9583C560.458 50.4825 553.524 57.4167 545 57.4167C536.476 57.4167 529.542 50.4825 529.542 41.9583C529.542 33.4342 536.476 26.5 545 26.5ZM545 88.3333C536.034 88.3333 525.434 84.7117 517.882 75.6133C525.618 69.5436 535.167 66.2447 545 66.2447C554.833 66.2447 564.382 69.5436 572.118 75.6133C564.566 84.7117 553.966 88.3333 545 88.3333Z" fill="black"/>
<path d="M53 318.546C28.62 318.546 8.83333 338.332 8.83333 362.712C8.83333 387.092 28.62 406.879 53 406.879C77.38 406.879 97.1667 387.092 97.1667 362.712C97.1667 338.332 77.38 318.546 53 318.546ZM53 336.212C61.5242 336.212 68.4583 343.147 68.4583 351.671C68.4583 360.195 61.5242 367.129 53 367.129C44.4758 367.129 37.5417 360.195 37.5417 351.671C37.5417 343.147 44.4758 336.212 53 336.212ZM53 398.046C44.0342 398.046 33.4342 394.424 25.8817 385.326C33.6179 379.256 43.1668 375.957 53 375.957C62.8332 375.957 72.3821 379.256 80.1183 385.326C72.5658 394.424 61.9658 398.046 53 398.046Z" fill="black"/>
<path d="M695 407.833C670.62 407.833 650.833 427.62 650.833 452C650.833 476.38 670.62 496.167 695 496.167C719.38 496.167 739.167 476.38 739.167 452C739.167 427.62 719.38 407.833 695 407.833ZM695 425.5C703.524 425.5 710.458 432.434 710.458 440.958C710.458 449.482 703.524 456.417 695 456.417C686.476 456.417 679.542 449.482 679.542 440.958C679.542 432.434 686.476 425.5 695 425.5ZM695 487.333C686.034 487.333 675.434 483.712 667.882 474.613C675.618 468.544 685.167 465.245 695 465.245C704.833 465.245 714.382 468.544 722.118 474.613C714.566 483.712 703.966 487.333 695 487.333Z" fill="black"/>
<path d="M336 680.75C311.62 680.75 291.833 698.11 291.833 719.5C291.833 740.89 311.62 758.25 336 758.25C360.38 758.25 380.167 740.89 380.167 719.5C380.167 698.11 360.38 680.75 336 680.75ZM336 696.25C344.524 696.25 351.458 702.334 351.458 709.812C351.458 717.291 344.524 723.375 336 723.375C327.476 723.375 320.542 717.291 320.542 709.812C320.542 702.334 327.476 696.25 336 696.25ZM336 750.5C327.034 750.5 316.434 747.322 308.882 739.34C316.618 734.015 326.167 731.12 336 731.12C345.833 731.12 355.382 734.015 363.118 739.34C355.566 747.322 344.966 750.5 336 750.5Z" fill="black"/>
<path d="M130 680.75C105.62 680.75 85.8333 698.11 85.8333 719.5C85.8333 740.89 105.62 758.25 130 758.25C154.38 758.25 174.167 740.89 174.167 719.5C174.167 698.11 154.38 680.75 130 680.75ZM130 696.25C138.524 696.25 145.458 702.334 145.458 709.812C145.458 717.291 138.524 723.375 130 723.375C121.476 723.375 114.542 717.291 114.542 709.812C114.542 702.334 121.476 696.25 130 696.25ZM130 750.5C121.034 750.5 110.434 747.322 102.882 739.34C110.618 734.015 120.167 731.12 130 731.12C139.833 731.12 149.382 734.015 157.118 739.34C149.566 747.322 138.966 750.5 130 750.5Z" fill="black"/>
<path d="M245 318.546C220.62 318.546 200.833 338.332 200.833 362.712C200.833 387.092 220.62 406.879 245 406.879C269.38 406.879 289.167 387.092 289.167 362.712C289.167 338.332 269.38 318.546 245 318.546ZM245 336.212C253.524 336.212 260.458 343.147 260.458 351.671C260.458 360.195 253.524 367.129 245 367.129C236.476 367.129 229.542 360.195 229.542 351.671C229.542 343.147 236.476 336.212 245 336.212ZM245 398.046C236.034 398.046 225.434 394.424 217.882 385.326C225.618 379.256 235.167 375.957 245 375.957C254.833 375.957 264.382 379.256 272.118 385.326C264.566 394.424 253.966 398.046 245 398.046Z" fill="black"/>
<path d="M438 318.546C413.62 318.546 393.833 338.332 393.833 362.712C393.833 387.092 413.62 406.879 438 406.879C462.38 406.879 482.167 387.092 482.167 362.712C482.167 338.332 462.38 318.546 438 318.546ZM438 336.212C446.524 336.212 453.458 343.147 453.458 351.671C453.458 360.195 446.524 367.129 438 367.129C429.476 367.129 422.542 360.195 422.542 351.671C422.542 343.147 429.476 336.212 438 336.212ZM438 398.046C429.034 398.046 418.434 394.424 410.882 385.326C418.618 379.256 428.167 375.957 438 375.957C447.833 375.957 457.382 379.256 465.118 385.326C457.566 394.424 446.966 398.046 438 398.046Z" fill="black"/>
<path d="M1080 407.833C1055.62 407.833 1035.83 427.62 1035.83 452C1035.83 476.38 1055.62 496.167 1080 496.167C1104.38 496.167 1124.17 476.38 1124.17 452C1124.17 427.62 1104.38 407.833 1080 407.833ZM1080 425.5C1088.52 425.5 1095.46 432.434 1095.46 440.958C1095.46 449.482 1088.52 456.417 1080 456.417C1071.48 456.417 1064.54 449.482 1064.54 440.958C1064.54 432.434 1071.48 425.5 1080 425.5ZM1080 487.333C1071.03 487.333 1060.43 483.712 1052.88 474.613C1060.62 468.544 1070.17 465.245 1080 465.245C1089.83 465.245 1099.38 468.544 1107.12 474.613C1099.57 483.712 1088.97 487.333 1080 487.333Z" fill="black"/>
<path d="M750 678.75C725.62 678.75 705.833 696.11 705.833 717.5C705.833 738.89 725.62 756.25 750 756.25C774.38 756.25 794.167 738.89 794.167 717.5C794.167 696.11 774.38 678.75 750 678.75ZM750 694.25C758.524 694.25 765.458 700.334 765.458 707.812C765.458 715.291 758.524 721.375 750 721.375C741.476 721.375 734.542 715.291 734.542 707.812C734.542 700.334 741.476 694.25 750 694.25ZM750 748.5C741.034 748.5 730.434 745.322 722.882 737.34C730.618 732.015 740.167 729.12 750 729.12C759.833 729.12 769.382 732.015 777.118 737.34C769.566 745.322 758.966 748.5 750 748.5Z" fill="black"/>
<path d="M953 678.75C928.62 678.75 908.833 696.11 908.833 717.5C908.833 738.89 928.62 756.25 953 756.25C977.38 756.25 997.167 738.89 997.167 717.5C997.167 696.11 977.38 678.75 953 678.75ZM953 694.25C961.524 694.25 968.458 700.334 968.458 707.812C968.458 715.291 961.524 721.375 953 721.375C944.476 721.375 937.542 715.291 937.542 707.812C937.542 700.334 944.476 694.25 953 694.25ZM953 748.5C944.034 748.5 933.434 745.322 925.882 737.34C933.618 732.015 943.167 729.12 953 729.12C962.833 729.12 972.382 732.015 980.118 737.34C972.566 745.322 961.966 748.5 953 748.5Z" fill="black"/>
<path d="M898.298 133.833C873.688 133.833 853.714 153.62 853.714 178C853.714 202.38 873.688 222.167 898.298 222.167C922.908 222.167 942.881 202.38 942.881 178C942.881 153.62 922.908 133.833 898.298 133.833ZM898.298 151.5C906.902 151.5 913.902 158.434 913.902 166.958C913.902 175.483 906.902 182.417 898.298 182.417C889.693 182.417 882.694 175.483 882.694 166.958C882.694 158.434 889.693 151.5 898.298 151.5ZM898.298 213.333C889.247 213.333 878.547 209.712 870.924 200.613C878.733 194.544 888.372 191.245 898.298 191.245C908.224 191.245 917.863 194.544 925.672 200.613C918.048 209.712 907.348 213.333 898.298 213.333Z" fill="black"/>
<path d="M887 405.833C862.62 405.833 842.833 425.62 842.833 450C842.833 474.38 862.62 494.167 887 494.167C911.38 494.167 931.167 474.38 931.167 450C931.167 425.62 911.38 405.833 887 405.833ZM887 423.5C895.524 423.5 902.458 430.434 902.458 438.958C902.458 447.482 895.524 454.417 887 454.417C878.476 454.417 871.542 447.482 871.542 438.958C871.542 430.434 878.476 423.5 887 423.5ZM887 485.333C878.034 485.333 867.434 481.712 859.882 472.613C867.618 466.544 877.167 463.245 887 463.245C896.833 463.245 906.382 466.544 914.118 472.613C906.566 481.712 895.966 485.333 887 485.333Z" fill="black"/>
</svg>
